name ./resultDataOpenSim/trcMotMarkerGrf/sub10/grf-13-03.mot
datacolumns 19
datarows 12
range 0.97200000 1.01600000
endheader

                time	     ground_force_vx	     ground_force_vy	     ground_force_vz	     ground_force_px	     ground_force_py	     ground_force_pz	   l_ground_force_vx	   l_ground_force_vy	   l_ground_force_vz	   l_ground_force_px	   l_ground_force_py	   l_ground_force_pz	     ground_torque_x	     ground_torque_y	     ground_torque_z	   l_ground_torque_x	   l_ground_torque_y	   l_ground_torque_z	
          0.97200000	          0.00000000	          0.00000000	          0.00000000	          0.00000000	          0.00000000	          0.00000000	         71.46442673	        703.24925736	         16.89179466	         -0.07629965	         -0.05000300	         -0.01924216	          0.00000000	          0.00000000	          0.00000000	          0.00000000	         -5.74220691	          0.00000000	
          0.97600000	          0.00000000	          0.00000000	          0.00000000	          0.00000000	          0.00000000	          0.00000000	         77.58526426	        715.53219149	         18.32458494	         -0.07602074	         -0.05000300	         -0.01911300	          0.00000000	          0.00000000	          0.00000000	          0.00000000	         -5.71142124	          0.00000000	
          0.98000000	          0.00000000	          0.00000000	          0.00000000	          0.00000000	          0.00000000	          0.00000000	         83.89996951	        727.77214866	         19.63466884	         -0.07565062	         -0.05000300	         -0.01892322	          0.00000000	          0.00000000	          0.00000000	          0.00000000	         -5.68635579	          0.00000000	
          0.98400000	          0.00000000	          0.00000000	          0.00000000	          0.00000000	          0.00000000	          0.00000000	         90.41866197	        739.81305853	         20.76691178	         -0.07518290	         -0.05000300	         -0.01867042	          0.00000000	          0.00000000	          0.00000000	          0.00000000	         -5.67309403	          0.00000000	
          0.98800000	          0.00000000	          0.00000000	          0.00000000	          0.00000000	          0.00000000	          0.00000000	         97.12336067	        751.55466085	         21.62533274	         -0.07461698	         -0.05000300	         -0.01835264	          0.00000000	          0.00000000	          0.00000000	          0.00000000	         -5.67666082	          0.00000000	
          0.99200000	          0.00000000	          0.00000000	          0.00000000	          0.00000000	          0.00000000	          0.00000000	        103.97783615	        762.93995465	         22.10154208	         -0.07395435	         -0.05000300	         -0.01797072	          0.00000000	          0.00000000	          0.00000000	          0.00000000	         -5.70068936	          0.00000000	
          0.99600000	          0.00000000	          0.00000000	          0.00000000	          0.00000000	          0.00000000	          0.00000000	        110.95816291	        773.89851431	         22.10844301	         -0.07321114	         -0.05000300	         -0.01754214	          0.00000000	          0.00000000	          0.00000000	          0.00000000	         -5.74714437	          0.00000000	
          1.00000000	          0.00000000	          0.00000000	          0.00000000	          0.00000000	          0.00000000	          0.00000000	        118.06670389	        784.33765647	         21.59846365	         -0.07243270	         -0.05000300	         -0.01709111	          0.00000000	          0.00000000	          0.00000000	          0.00000000	         -5.81604451	          0.00000000	
          1.00400000	          0.00000000	          0.00000000	          0.00000000	          0.00000000	          0.00000000	          0.00000000	        125.30492388	        794.17698739	         20.57568244	         -0.07165225	         -0.05000300	         -0.01662876	          0.00000000	          0.00000000	          0.00000000	          0.00000000	         -5.90525749	          0.00000000	
          1.00800000	          0.00000000	          0.00000000	          0.00000000	          0.00000000	          0.00000000	          0.00000000	        132.65144060	        803.34906151	         19.10808135	         -0.07086303	         -0.05000300	         -0.01614849	          0.00000000	          0.00000000	          0.00000000	          0.00000000	         -6.01049745	          0.00000000	
          1.01200000	          0.00000000	          0.00000000	          0.00000000	          0.00000000	          0.00000000	          0.00000000	        140.07630518	        811.74861949	         17.32026170	         -0.07006656	         -0.05000300	         -0.01564994	          0.00000000	          0.00000000	          0.00000000	          0.00000000	         -6.12558301	          0.00000000	
          1.01600000	          0.00000000	          0.00000000	          0.00000000	          0.00000000	          0.00000000	          0.00000000	        147.54787942	        819.19334766	         15.35642178	         -0.06928733	         -0.05000216	         -0.01514174	          0.00000000	          0.00000000	          0.00000000	          0.00000000	         -6.24291234	          0.00000000	
